<?xml version="1.0" encoding="utf-8"?>
<!-- Generator: Adobe Illustrator 25.0.1, SVG Export Plug-In . SVG Version: 6.00 Build 0)  -->
<svg version="1.1" id="BACKGROUND" xmlns="http://www.w3.org/2000/svg" xmlns:xlink="http://www.w3.org/1999/xlink" x="0px" y="0px"
	 viewBox="0 0 750 500" style="enable-background:new 0 0 750 500;" xml:space="preserve">
<style type="text/css">
	.st0{fill:url(#SVGID_1_);}
	.st1{fill:url(#SVGID_2_);}
	.st2{fill:url(#SVGID_3_);}
	.st3{fill:url(#SVGID_4_);}
	.st4{fill:url(#SVGID_5_);}
	.st5{fill:#DE7E41;}
	.st6{fill:url(#SVGID_6_);}
	.st7{fill:url(#SVGID_7_);}
	.st8{fill:url(#SVGID_8_);}
	.st9{fill:url(#SVGID_9_);}
	.st10{fill:url(#SVGID_10_);}
	.st11{fill:#2C0C19;}
</style>
<g id="clouds">
	<linearGradient id="SVGID_1_" gradientUnits="userSpaceOnUse" x1="564.4874" y1="93.8737" x2="587.52" y2="202.8359">
		<stop  offset="0" style="stop-color:#FFFAF2"/>
		<stop  offset="0.3727" style="stop-color:#FFF0D9;stop-opacity:0.6264"/>
		<stop  offset="0.7332" style="stop-color:#FFE9C7;stop-opacity:0.265"/>
		<stop  offset="0.9975" style="stop-color:#FFE6C1;stop-opacity:0"/>
	</linearGradient>
	<path class="st0" d="M808.01,139.85c0-6.69-2.8-12.75-7.36-17.23c1.36-4.17,2.09-8.59,2.09-13.17c0-24.75-21.29-44.82-47.56-44.82
		c-1.75,0-3.48,0.1-5.19,0.27v-0.27c-2.9,0.31-5.76,0.95-8.51,1.9c-13.15,3.72-23.9,12.67-29.55,24.28
		c-9.96-5.65-22.61-6.39-33.13-1.79c-10.98,4.79-22.4,15.08-24.63,26.86c-15.75-8.52-40.23-2.89-50.44,11.82
		c-4.23-3.57-12.41-4.93-17.03-1.87c-10.86-10.11-27.32-13.77-41.44-9.22c-14.12,4.55-25.11,17.31-28.01,31.86
		c-8.31-6.8-19.73-2.89-25.23,6.32c-7.51-3.96-18.28-2.32-24.33,3.64c-8.69-10.4-23.44-15.31-36.63-12.21
		c-13.19,3.11-25.12,15.32-28.26,28.5c-4.81-4.14-14.38-1.27-16.38,4.75c-11.47-8.76-29.86-6.35-38.69,5.08
		c56.57,25.97,120.15,26.71,182.33,29.34c61.54,2.6,126.8,0.46,189.76-1.76c10.12-0.36,20.19-0.72,30.17-1.06v-17.09
		c0.28-0.36,0.55-0.73,0.81-1.1c3.39,1,7,1.54,10.75,1.54c19.86,0,35.96-15.17,35.96-33.88c0-0.27-0.01-0.53-0.02-0.8
		C803.88,155.18,808.01,147.97,808.01,139.85z"/>
	<linearGradient id="SVGID_2_" gradientUnits="userSpaceOnUse" x1="103.335" y1="87.9335" x2="69.643" y2="165.6842">
		<stop  offset="0" style="stop-color:#FFFAF2"/>
		<stop  offset="0.3727" style="stop-color:#FFF0D9;stop-opacity:0.6264"/>
		<stop  offset="0.7332" style="stop-color:#FFE9C7;stop-opacity:0.265"/>
		<stop  offset="0.9975" style="stop-color:#FFE6C1;stop-opacity:0"/>
	</linearGradient>
	<path class="st1" d="M220.75,160.95c0.04-0.01,0.08-0.02,0.12-0.03c-0.21-0.63-0.45-1.26-0.71-1.87
		c-3.94-11.52-14.8-19.83-27.63-19.95c-5.88-0.97-12.01-0.85-16.66,1.3c0.45-3.96-1.37-8.1-4.59-10.45
		c-3.21-2.35-7.7-2.85-11.34-1.23c-3.86-10.49-13.23-18.76-24.11-21.29c-10.88-2.53-23.6,0.07-31.68,7.78
		c-1.1-4.51-8.08-8.59-12.53-7.26c-4.36-7.59-12.07-13.18-20.64-14.98c-8.58-1.79-19.1-1.1-26.15,4.11
		c-5.79-5.73-14.1-9.67-21.81-7.04c-0.36-0.86-0.77-1.7-1.2-2.52C14.99,73.94,0.94,64.63-15.29,64.63
		c-22.95,0-41.56,18.61-41.56,41.56c0,20.31,14.56,37.2,33.81,40.83c5.1,7.84,13.39,13.41,23.04,14.86v31.08
		c9.79,0.45,19.58,0.53,29.37,0.31c0.9,0.08,1.8,0.12,2.72,0.12c1.61,0,3.2-0.12,4.74-0.35c42.41-1.63,84.76-8.9,126.58-18.25
		c2.85,13.31,14.68,23.29,28.84,23.29c16.29,0,29.5-13.21,29.5-29.5C221.75,165.94,221.4,163.39,220.75,160.95z"/>
</g>
<g id="mountains1">
	<linearGradient id="SVGID_3_" gradientUnits="userSpaceOnUse" x1="384.7547" y1="161.9252" x2="380.5567" y2="235.8105">
		<stop  offset="0" style="stop-color:#FFB05C"/>
		<stop  offset="1" style="stop-color:#FFC875"/>
	</linearGradient>
	<path class="st2" d="M750,187.95V500H0V167.22c22.07-15.06,43.8-31.01,70.12-37.99c45.18-11.97,84.05,21.18,127.64,27.02
		c21.73,2.92,43.32-6.42,65.26-6.23c38.28,0.33,70.03,28.86,107.63,35.68c39.89,7.24,79.43-10.67,116.65-26.05
		c37.23-15.38,67.29-25.41,104.28-9.53c32.45,13.94,67.15,45.03,102.27,50.77C710.88,203.68,731.49,191.39,750,187.95z"/>
</g>
<g id="mountains2">
	<linearGradient id="SVGID_4_" gradientUnits="userSpaceOnUse" x1="598.7899" y1="212.5356" x2="604.1074" y2="266.5967">
		<stop  offset="0" style="stop-color:#FFFAF2"/>
		<stop  offset="0.9975" style="stop-color:#FFE6C1;stop-opacity:0"/>
	</linearGradient>
	<path class="st3" d="M750,200.77v103.64l-34.64,0.39l-259.57,2.98v-50.8c13.18-12.17,34.8-13.94,49.78-4.06
		c3.7-7.13,14.61-10.25,21.67-6.42c4.27-12.55,16.31-20.54,29.53-21.53c13.22-0.99,26.7,6.53,32.79,18.31
		c6.79-3.46,17.55,0.87,22.65,6.53c10.2-5.96,27.45-2.03,32.84,8.47c3.02-7.85,10.53-13.44,18.51-16.11
		c7.99-2.67,17.14-1.59,24.28,2.87c1.25-7.88,13.04-15.24,20.27-11.87c1.41-7.7,5.81-15.24,11.72-21.05
		c3.71-3.66,8.03-6.63,12.56-8.54C737.93,201.26,744.02,200.34,750,200.77z"/>
	<linearGradient id="SVGID_5_" gradientUnits="userSpaceOnUse" x1="386.0452" y1="234.4279" x2="380.9421" y2="310.9745">
		<stop  offset="0" style="stop-color:#E8924D"/>
		<stop  offset="1" style="stop-color:#FFB05C"/>
	</linearGradient>
	<path class="st4" d="M750,313v187H0V300.21c56.44-27.32,112.88-54.65,169.33-81.98c0.89-0.42,1.77-0.86,2.66-1.28
		c1.68-0.81,3.36-1.62,5.05-2.43c21.56-10.33,44.36-20.21,67.93-21.13l0.82-3.56l0.81,3.5c3.77-0.08,7.56,0.07,11.37,0.5
		c5.99,0.66,11.79,1.98,17.49,3.71l1.66-7.24l1.93,8.39c0.21,0.07,0.43,0.14,0.64,0.21l0.83-3.61l0.98,4.25
		c12.64,4.5,24.81,10.73,37.2,16.14l0.88-3.83l1.08,4.67c11.37,4.87,22.95,8.93,35.28,10.23c4.8,0.51,9.66,0.59,14.55,0.42l1.3-5.64
		l1.27,5.53c0.22-0.01,0.44-0.03,0.67-0.04l1.26-5.49l1.23,5.33c12.85-0.9,25.8-3.08,38.36-3.45l1.06-4.6l0.63,2.76l2.32-10.06
		l2.27,9.87l1.13-4.88l1.6,6.96h-0.86c0.78,0.03,1.56,0.08,2.34,0.13l1.01-4.38l1.05,4.55c4.72,0.46,9.35,1.36,13.87,2.85l1.17-5.08
		l1.38,5.99c0.44,0.17,0.87,0.35,1.3,0.53l0.53-2.28l0.64,2.77c10.25,4.54,18.59,12.2,27.26,19.23c2.67,2.17,5.37,4.27,8.17,6.21
		l0.21-0.93l0.29,1.28c1.07,0.72,2.15,1.42,3.24,2.09l1.22-5.3l1.03,4.45l0.75-3.28l1.53,6.65c0.58,0.29,1.17,0.57,1.76,0.84
		l0.75-3.25l0.91,3.97c0.81,0.33,1.62,0.64,2.46,0.93l1.12-4.9l1.31,5.67c0.27,0.08,0.55,0.16,0.83,0.24l0.55-2.43l0.63,2.72
		c14.19,3.43,28.92,0.24,43.81-2.9l1.29-5.58l1.16,5.06c0.61-0.12,1.22-0.25,1.83-0.37l1.37-5.99l1.26,5.46
		c8.28-1.64,16.58-2.95,24.85-2.77c9.61,0.21,18.63,2.35,27.3,5.69l0.66-2.87l0.64,2.77l0.96-4.19l1.32,5.74
		c3.02,1.29,6,2.71,8.94,4.24l0.82-3.53l1.03,4.51c15.32,8.22,29.85,19.15,45,28.35c5.32,3.23,10.71,6.25,16.25,8.87
		c9.16,4.33,18.69,7.55,28.88,8.79c2.23,0.27,4.49,0.44,6.76,0.54c7.72,0.35,15.63-0.18,23.5-0.75C741.8,313.5,745.92,313.2,750,313
		z"/>
</g>
<path id="mountains3" class="st5" d="M682.56,351.7c-52.67,4.71-106.12,1.48-157.71-9.75c-4.95-1.07-9.87-2.22-14.78-3.44
	c-42.31-10.55-82.74-26.28-122.72-43.35l-0.49-2.11l-0.4,1.74c-3.21-1.37-6.42-2.75-9.62-4.14l-1.05-4.55l-0.86,3.73
	c-0.12-0.05-0.24-0.11-0.37-0.16l-0.38-1.64l-0.31,1.34c-35.42-15.37-70.61-31.44-106.57-45.51l-0.57-2.48l-0.48,2.07
	c-0.34-0.13-0.69-0.27-1.03-0.41l-1.18-5.14l-0.99,4.31c-0.92-0.35-1.84-0.71-2.75-1.06l-0.75-3.25l-0.63,2.72
	c-0.66-0.25-1.32-0.51-1.98-0.76l-1.43-6.21l-0.75,3.28l-1.02-4.44l-1.31,5.69c-0.94-0.35-1.88-0.7-2.82-1.05l-0.62-2.71l-0.53,2.29
	c-12.03-4.41-24.3-8.52-36.74-12.26l-1.02-4.45l-0.89,3.87c-2.05-0.61-4.12-1.19-6.18-1.78l-1.46-6.34l-0.75,3.28l-1.02-4.44
	l-1.42,6.18c-2.47-0.68-4.95-1.34-7.44-1.99l-0.52-2.26l-0.46,2c-0.47-0.12-0.94-0.25-1.41-0.37l-1.52-6.62l-1.36,5.91
	c-3.01-0.75-6.03-1.49-9.06-2.19l-1.31-5.69l-1.18,5.13c-1.79-0.41-3.58-0.83-5.37-1.21c-7.54-1.62-15.12-3.07-22.71-4.32
	l-1.01-4.37l-0.93,4.06c-0.46-0.07-0.92-0.15-1.39-0.22l-0.88-3.83l-0.82,3.57c-1.66-0.26-3.33-0.5-4.99-0.74l-0.9-3.9l-0.84,3.67
	c-33.7-4.63-67.57-5.18-100.29,0.16l-0.9-3.93l-0.98,4.25c-0.87,0.15-1.74,0.29-2.61,0.45l-0.78-3.4l-0.85,3.7
	c-1.29,0.24-2.57,0.49-3.86,0.75l-0.22-0.97l-0.25,1.07c-1.63,0.33-3.25,0.68-4.87,1.04l-1.11-4.82l-1.12,4.88l-2.27-9.87
	l-2.65,11.53C8.04,213.22,4,214.34,0,215.58V500h750V341.2C727.81,346.17,705.26,349.67,682.56,351.7z"/>
<g id="mountains4">
	<linearGradient id="SVGID_6_" gradientUnits="userSpaceOnUse" x1="258.5517" y1="267.877" x2="238.1525" y2="350.5477">
		<stop  offset="0" style="stop-color:#FFFAF2"/>
		<stop  offset="0.5655" style="stop-color:#FFEED4;stop-opacity:0.4331"/>
		<stop  offset="0.9975" style="stop-color:#FFE6C1;stop-opacity:0"/>
	</linearGradient>
	<path class="st6" d="M492.9,378.79c-2.89-8.53-10.35-15.22-18.73-18.81c-9.29-3.97-18.78-2.48-28.88-2.59
		c-5.9-10.4-16.53-17.63-28.13-20.54c-4.97-6.71-12.87-11.16-21.19-11.95c-8.31-0.79-16.42,3.29-22.57,8.95
		c-7.61-7.16-18.29-10.94-28.72-10.16c-10.42,0.78-21.57,4.71-28.04,12.92c-5.8-6.4-14.88-8.25-21.53-2.74
		c-8.58-12.75-22.34-21.91-37.41-24.9c-15.08-3-34.63,0.33-47.43,8.84c-5.95-9.67-21.07-12-29.63-4.55
		c-4.84-10.94-14.15-19.82-25.31-24.13c-11.15-4.31-25.07-4.09-36,0.76c-2.85-9.15-13.36-16.58-22.8-14.97
		c-12.76-12.08-33.18-12.97-49.17-5.69C33.6,259.66,16.74,254.78,0,255.06v123.73H492.9z"/>
	<linearGradient id="SVGID_7_" gradientUnits="userSpaceOnUse" x1="480.3747" y1="367.12" x2="541.6715" y2="475.4588">
		<stop  offset="0" style="stop-color:#BF5047"/>
		<stop  offset="0.879" style="stop-color:#DE7E42"/>
	</linearGradient>
	<path class="st7" d="M750,234.63V500H210.97c31.72-12.79,56.15-39.95,82.96-62.95c2.15-1.84,4.32-3.66,6.51-5.45
		c15.39-12.54,31.79-23.28,50.94-28.87c33.45-9.76,70.58-2.17,103.8-12.61c23.74-7.45,42.78-23.15,61.81-39.01
		c2.61-2.17,5.23-4.36,7.86-6.52c0.85-0.7,1.7-1.4,2.55-2.09c14.63-11.94,29.76-23.1,47.45-29.88c7.45-2.85,15.25-4.89,23.23-6.47
		c21.19-4.21,43.65-5.22,64.2-9.8c14.68-3.26,28.38-8.35,39.95-17.76c11.49-9.32,19.41-21.96,30.07-32.13
		C737.33,241.66,743.44,237.38,750,234.63z"/>
	<linearGradient id="SVGID_8_" gradientUnits="userSpaceOnUse" x1="375.8644" y1="272.7011" x2="374.7415" y2="437.7542">
		<stop  offset="0" style="stop-color:#912838"/>
		<stop  offset="1" style="stop-color:#BF5047"/>
	</linearGradient>
	<path class="st8" d="M743.75,442.59c-42.54-17.65-85.07-35.3-127.6-52.95c-6.96-2.89-13.91-5.77-20.86-8.66
		c-4.08-1.69-8.19-3.38-12.3-5.07l-1.77-7.7l-1.47,6.37c-0.54-0.22-1.07-0.44-1.61-0.66l-3.18-13.8l-2.64,11.45
		c-1.9-0.76-3.79-1.53-5.69-2.29l-2.11-9.16l-1.76,7.64c-1.31-0.52-2.62-1.03-3.94-1.55l-3.67-15.94l-1.75,7.61l-2.37-10.31
		l-3.31,14.38c-2.17-0.82-4.35-1.62-6.54-2.42l-1.18-5.14l-1,4.34c-7.3-2.66-14.64-5.22-22.02-7.63
		c-19.96-6.51-38.37-11.3-56.52-14.02l-0.95-4.11l-0.88,3.84c-5.4-0.77-10.78-1.35-16.17-1.74l-2.75-11.95l-1.75,7.61l-2.37-10.31
		l-3.26,14.16c-5.37-0.14-10.78-0.1-16.25,0.16l-2.27-9.84l-2.33,10.11c-0.18,0.01-0.37,0.03-0.55,0.04l-5-21.73l-5.22,22.69
		c-2.07,0.24-4.16,0.5-6.26,0.8l-1.29-5.6l-1.38,6c-5.48,0.84-11.07,1.86-16.79,3.11c-52.25,11.37-103.3,30.65-156.02,21.36
		c-0.27-0.05-0.54-0.11-0.81-0.16l-1.35-5.86l-1.23,5.36c-7.21-1.5-14.18-3.68-20.97-6.33l-3.5-15.19l-2.38,10.32l-1.34-5.84
		l-1.6,6.97c-29.29-13.4-55.87-34.65-85.96-48.01l-1.04-4.52l-0.85,3.69c-5.97-2.57-12.09-4.82-18.39-6.63l-1.59-6.92l-1.4,6.1
		c-4.18-1.09-8.44-1.98-12.81-2.64l-1.37-5.94l-1.02,4.44l-3.11-13.49l-3.22,14.01c-1.47-0.11-2.95-0.2-4.44-0.26l-2.47-10.73
		l-2.45,10.66c-2.73,0.01-5.51,0.13-8.32,0.35l-0.67-2.92l-0.7,3.04c-3.68,0.32-7.42,0.82-11.25,1.51l-2.5-10.85l-2.61,11.33
		l-5.27-22.91l-6.09,26.47c-2.71,0.84-5.45,1.75-8.24,2.78V500h750v-54.8C747.91,444.32,745.83,443.45,743.75,442.59z"/>
</g>
<g id="mountains5">
	<linearGradient id="SVGID_9_" gradientUnits="userSpaceOnUse" x1="546.5051" y1="345.792" x2="579.4896" y2="428.8216">
		<stop  offset="0" style="stop-color:#FFFAF2"/>
		<stop  offset="0.0406" style="stop-color:#FFF7EB;stop-opacity:0.9593"/>
		<stop  offset="0.1865" style="stop-color:#FFF0D8;stop-opacity:0.8131"/>
		<stop  offset="0.3576" style="stop-color:#FFEACB;stop-opacity:0.6415"/>
		<stop  offset="0.5753" style="stop-color:#FFE7C3;stop-opacity:0.4232"/>
		<stop  offset="0.9975" style="stop-color:#FFE6C1;stop-opacity:0"/>
	</linearGradient>
	<path class="st9" d="M750,271.97v204.86H365.74c1.01-4.38,2.73-8.62,5.05-12.49c1.46-2.42,3.14-4.7,5.03-6.78
		c1.35-1.48,2.81-2.88,4.38-4.14c2.76-2.22,5.85-4,9.24-5c5.31-1.58,11.4-1.04,15.88,2.22c0.76-5.91,5.8-9.93,11.37-11.1
		c3.47-0.74,13.1-0.34,14.89,4.15c0.08,0.2,0.14,0.4,0.19,0.61c-0.05-0.21-0.09-0.42-0.12-0.64c-1.44-8.27,5.13-16.86,12.77-20.48
		c7.83-3.7,17-3.3,25.5-1.61c3.02-4.52,6.68-7.86,11.31-8.55c1.5-0.22,3.1-0.17,4.82,0.21c2.71-9.61,12.15-16.32,22.02-17.8
		c9.87-1.48,20.41,3.28,25.81,11.68c8.16-7.75,21.9-8.12,30.35-0.7c9.26-18.32,31.64-27.05,51.94-23.86
		c0.71,0.11,1.43,0.24,2.14,0.38c-0.05-0.47-0.1-0.95-0.14-1.43c-0.79-9.83,1.9-20.54,8.47-27.78c0.5-0.56,1.03-1.1,1.58-1.61
		c8.06-7.52,19.78-10.91,30.62-8.88c1.26-6.75,7.14-11.88,13.56-14.3c4.93-1.86,10.59-1.61,15.4,0.52c1.46,0.65,2.84,1.47,4.1,2.46
		c0.16-0.47,0.35-0.94,0.57-1.4c3.54-7.81,13.45-13.82,21.19-10.41c0.17-1.86,0.33-3.71,0.51-5.55c0.32-3.3,0.67-6.55,1.19-9.75
		c1-6.11,2.63-12.01,5.82-17.59C726.96,277.1,738.64,269.37,750,271.97z"/>
	<linearGradient id="SVGID_10_" gradientUnits="userSpaceOnUse" x1="374.8146" y1="392.4767" x2="377.5134" y2="534.1668">
		<stop  offset="0" style="stop-color:#4A1623"/>
		<stop  offset="0.2084" style="stop-color:#511825"/>
		<stop  offset="0.5016" style="stop-color:#631C2A"/>
		<stop  offset="0.8435" style="stop-color:#812433"/>
		<stop  offset="1" style="stop-color:#912838"/>
	</linearGradient>
	<path class="st10" d="M750,307.14V500H0V396.97c25.12-16.02,51.12-30.59,79.55-38.91c3.31-0.97,6.61-1.76,9.9-2.41l5.62-24.44
		l5.27,22.86c1.59-0.15,3.18-0.27,4.76-0.35l2.75-11.93l2.26,9.83l4.12-17.91l4.65,20.17c10.33,0.75,20.49,2.89,30.42,6.14
		l1.52-6.57l1.77,7.68c12.61,4.46,24.86,10.67,36.62,18.07c15.45,9.72,31.26,21.34,46.57,32.19c14.61,10.35,29.42,23.17,48.34,22.73
		c3.29-0.07,6.56-0.5,9.81-1.11c2.18-0.41,4.34-0.89,6.51-1.41c9.84-2.33,19.59-5.28,29.52-4.02c7.2,0.91,13.67,3.89,19.9,7.62
		l0.87-3.77l1.16,5.01c1.79,1.13,3.57,2.3,5.34,3.49l4.39-19.07l5.98,25.95c3.06,1.92,6.18,3.72,9.41,5.23
		c1.05,0.49,2.12,0.95,3.19,1.38c25.31,10.14,54.49,2.83,80.67-5.7c13.46-4.38,26.82-9.04,40.08-13.98l5.67-24.6l4.75,20.65
		c1.05-0.4,2.08-0.81,3.13-1.22l2.18-9.48l1.82,7.92c33.29-13.1,65.9-27.93,97.65-44.45c0.01,0,0.01-0.01,0.02-0.01
		c0.67-0.35,1.33-0.7,2-1.05c13.83-7.22,27.48-14.77,40.96-22.63l1.3-5.66l0.77-3.34l0.75,3.26l0.83,3.6
		c2.27-1.33,4.54-2.68,6.8-4.03c2.3-1.38,4.59-2.76,6.88-4.16c2.02-1.23,4.06-2.47,6.1-3.72c0.66-0.4,1.32-0.81,1.98-1.21
		l3.26-14.16l2.21-9.61l2.46,10.67l1.68,7.3c2.92-1.73,5.86-3.45,8.82-5.11l1.68-7.29l1.29,5.63c10.1-5.55,20.42-10.54,31.01-14.11
		l0.72-3.13l2.13-9.28l0.06-0.24l0.06,0.24l1.59,6.92l1.6-6.95l3.14-13.63l3.75,13.56V307.14z"/>
</g>
<path id="mountains6" class="st11" d="M724.07,447.91l-10.77-18.86l-7.2,22.45l-5.27-12.54l-5.7,18.46
	c-0.7,0.03-1.39,0.06-2.09,0.08l-7.22-31.63l-3.43,21.75l-7.09-31.06l-6.62,42.01c-0.03,0-0.06,0-0.09,0l-3.7-13.83l-3.56,14.2
	c-9.8,0.5-19.61,1.06-29.44,1.67l-5.49-15.7l-3.08,11.14l-5.38-19.61l-3.85,24.4l-3.6-10.71l-3.51,12.14
	c-3.56,0.25-7.12,0.51-10.68,0.77l-2.05-8.96l-1.93,9.26c-1.43,0.11-2.85,0.22-4.28,0.33l-4.31-18.9l-3.86,19.54
	c-3.33,0.27-6.66,0.54-9.99,0.81l-2.68-7.78l-2.63,8.22c-14.28,1.21-28.53,2.51-42.71,3.9l-5.07-15.71l-4.03,14.55l-7.19-18.81
	l-6.89,22.33c-2.75,0.29-5.5,0.58-8.25,0.88l-3.19-13.96l-2.29,14.55c-0.9,0.1-1.81,0.2-2.71,0.3l-5.52-24.16l-3.97,25.22
	c-11.5,1.3-22.94,2.65-34.27,4.05l-6.34-14.42l-4.06,13.39l-2.93-9.12l-2.7,12.17c-14.27,1.83-28.38,3.74-42.29,5.7l-7.3-27.17
	l-6.66,29.17c-2.99,0.44-5.97,0.87-8.94,1.32l-1.52-6.74l-1.93,7.25c-5.13,0.77-10.23,1.54-15.3,2.33l-10.25-33.23l-11.11,29.09
	l-6.23-22.5l-8.83,27.33c-8.12-1.24-16.12-2.43-24.02-3.58l-8.65-27.02l-8.48,24.57c-2.89-0.41-5.77-0.81-8.63-1.2l-8.47-42.8
	l-9.22,40.4c-0.56-0.07-1.12-0.15-1.67-0.22l-5.37-25.78l-5.56,24.35c-3.75-0.49-7.47-0.96-11.16-1.43l-8.39-29.03l-5.57,16.57
	l-5.95-37.74l-8.33,30.33l-4.76-17.22l-10.71,30.62l-9.27,0.21c-11.24-1.24-22.11-2.38-32.61-3.42l-6.95-27.67l-5.73,21.4
	l-10.38-64.99l-10.77,49.25L85.95,414l-11.91,52.18c-0.49-0.04-0.98-0.08-1.47-0.12l-9.82-31.82l-8.16,19.4l-11.14-34.72
	L26.8,448.09L6.38,357.33c0,0-2.65,8.99-6.38,21.76V500h750v-67.78c-5.66-19.59-12.73-43-12.73-43L724.07,447.91z"/>
</svg>
